<svg width="414" height="206" viewBox="0 0 414 206" fill="none" xmlns="http://www.w3.org/2000/svg">
<g clip-path="url(#clip0_15_21)">
<path d="M199.673 148.905V54.0732L191.595 41.5213L102.286 0.742873L82.6026 0.674034L11.0768 32.6774L0.830566 48.4898V146.995L17.8732 173.363L89.2786 205.642L112.154 205.556L184.85 172.004L199.673 148.905Z" fill="white" />
<path d="M199.673 148.905V54.0732L191.595 41.5213L102.286 0.742873L82.6026 0.674034L11.0768 32.6774L0.830566 48.4898V146.995L17.8732 173.363L89.2786 205.642L112.154 205.556L184.85 172.004L199.673 148.905Z" fill="white" />
<path d="M162.275 53.0064L96.9439 82.5837L77.9225 73.9376L135.873 47.7069L124.087 42.2956L62.4284 69.4899L43.4071 60.8868L105.16 33.6496L93.6661 28.3673L35.7503 54.8217L16.729 46.2186L84.7792 15.067H103L162.293 42.1924L162.275 53.0064Z" fill="black" />
<path d="M91.6272 94.585V175.454L76.7955 184.977L22.2952 159.942L14.0879 147.132V59.1748L32.464 67.5198V143.321L43.648 148.483L43.3899 60.8696L62.4113 69.4727L62.0241 156.906L73.2081 162.067V86.24L91.6272 94.585Z" fill="black" />
<path d="M186.304 71.2105V100.237L177.073 114.527L186.304 118.433V137.23L169.098 164.02L112.318 190.113V169.681L168.702 143.794V126.778L132.294 142.917V122.511L168.702 106.38V89.3629L112.326 115.25V94.8431L176.927 65.1798L186.304 71.2105Z" fill="black" />
<path d="M273.014 103.79C273.023 104.177 272.951 104.561 272.803 104.918C272.655 105.275 272.434 105.597 272.154 105.864L269.125 108.875L265.314 112.677C264.792 113.178 264.102 113.466 263.379 113.486C261.176 113.486 258.974 113.486 256.771 113.486C256.392 113.487 256.017 113.412 255.668 113.264C255.319 113.116 255.004 112.899 254.741 112.626C252.9 110.767 251.053 108.918 249.201 107.077L248.839 106.715L248.426 107.128L242.946 112.617C242.69 112.891 242.379 113.109 242.034 113.257C241.689 113.405 241.317 113.48 240.942 113.477H234.317C233.594 113.46 232.902 113.172 232.382 112.669C230.076 110.389 227.762 108.083 225.499 105.786C224.997 105.263 224.714 104.567 224.708 103.842C224.708 92.7956 224.708 81.7464 224.708 70.6943V65.2056H235.651V102.5H243.394V65.2314H254.302V102.491H262.045V65.2142H273.023V103.79H273.014Z" fill="white" />
<path d="M289.799 76.1486V83.8914H319.617V94.8259H289.816V102.569H319.617V113.538H288.491C288.113 113.54 287.739 113.464 287.391 113.316C287.043 113.168 286.73 112.951 286.469 112.677C285.488 111.688 284.516 110.707 283.527 109.726L279.656 105.829C279.15 105.307 278.861 104.612 278.847 103.885C278.847 94.4904 278.847 84.7087 278.847 74.8066C278.863 74.0961 279.146 73.4177 279.638 72.9053C281.849 70.6685 284.103 68.4059 286.521 66.0229C287.019 65.5363 287.683 65.2565 288.379 65.24H319.617V76.1486H289.799Z" fill="white" />
<path d="M412.168 95.2044C412.447 95.4738 412.667 95.7976 412.815 96.1558C412.963 96.514 413.036 96.8989 413.029 97.2864C413.029 98.2585 413.029 99.2393 413.029 100.211C413.029 101.424 413.029 102.637 413.029 103.842C413.021 104.55 412.74 105.228 412.246 105.735C410.086 107.928 407.815 110.208 405.303 112.694C404.814 113.164 404.166 113.435 403.488 113.451H374.237H373.919L372.198 113.331V102.508H402.008V94.7657H379.64V83.8484H402.008V76.1056H372.207V65.1453H378.229C386.591 65.1453 394.956 65.1453 403.324 65.1453C403.709 65.1404 404.091 65.2142 404.446 65.3622C404.801 65.5101 405.122 65.7291 405.389 66.0056C407.583 68.2252 409.863 70.5051 412.168 72.7935C412.445 73.0624 412.664 73.385 412.812 73.7415C412.96 74.098 413.034 74.4809 413.029 74.8668C413.029 75.8303 413.029 76.7939 413.029 77.7574C413.029 78.9791 413.029 80.2093 413.029 81.4309C413.008 82.1498 412.723 82.8359 412.229 83.358C410.508 85.0786 408.787 86.8193 407.067 88.5801L406.318 89.3199L406.817 89.8103C408.572 91.6112 410.356 93.4092 412.168 95.2044Z" fill="white" />
<path d="M365.402 95.2904C363.492 93.3548 361.539 91.4019 359.655 89.5178L359.483 89.3457L359.544 89.2769C361.528 87.2982 363.51 85.3138 365.488 83.3236C365.955 82.8273 366.216 82.1725 366.22 81.4911C366.22 78.9102 366.22 76.7939 366.22 74.8066C366.203 74.0851 365.914 73.3966 365.411 72.8795C364.129 71.5718 362.83 70.2986 361.539 68.9823L358.597 66.0314C358.332 65.7515 358.012 65.5303 357.656 65.3822C357.301 65.234 356.918 65.1621 356.532 65.1711H325.424V113.348L327.144 113.451H327.54H356.61C357.307 113.438 357.974 113.161 358.477 112.677C360.86 110.32 363.183 107.989 365.359 105.795C365.852 105.29 366.135 104.616 366.151 103.911C366.151 101.622 366.151 99.3683 366.151 97.2175C366.151 96.5042 365.884 95.8168 365.402 95.2904ZM355.294 83.8914H347.835V94.8259H355.285V102.569H336.358V76.1486H355.285L355.294 83.8914Z" fill="white" />
<path d="M348.618 132.096H325.868V159.042H318.247V124.463H348.06C348.217 124.461 348.373 124.491 348.518 124.551C348.663 124.612 348.794 124.702 348.902 124.816C351.177 127.091 353.452 129.366 355.727 131.72C355.931 131.932 356.052 132.211 356.068 132.505C356.068 134.78 356.068 132.607 356.068 134.837C356.074 135.082 355.989 135.322 355.829 135.508C353.486 137.881 351.131 140.244 348.765 142.594L348.538 142.799L348.618 132.096Z" fill="white" />
<path d="M356.114 150.852C356.114 155.607 356.114 153.81 356.114 158.565C356.114 158.712 356.114 158.86 356.114 159.042H348.618V150.466H335.123V142.89H348.811V143.14L348.993 143.311C351.268 145.586 353.6 147.861 355.875 150.215C356.023 150.395 356.107 150.619 356.114 150.852Z" fill="white" />
<path d="M399.144 134.86C399.149 135.089 399.068 135.312 398.917 135.485C396.562 137.874 394.185 140.24 391.819 142.606L391.603 142.776V132.096H368.853V159.031H361.278V124.463H391.125C391.274 124.456 391.422 124.482 391.56 124.539C391.698 124.596 391.821 124.683 391.921 124.793C394.196 127.068 396.539 129.411 398.837 131.732C399.03 131.931 399.143 132.194 399.156 132.471C399.156 134.723 399.156 132.607 399.144 134.86Z" fill="white" />
<path d="M399.144 158.803C399.153 158.883 399.153 158.963 399.144 159.042H391.66V150.466H378.165V142.89H391.853V143.14C391.901 143.179 391.947 143.221 391.99 143.266C394.325 145.586 396.646 147.91 398.951 150.238C399.102 150.387 399.195 150.585 399.212 150.796C399.156 155.607 399.144 153.935 399.144 158.803Z" fill="white" />
<path d="M262.465 124.497H270.064V125.066C270.064 137.339 270.064 138.716 270.064 150.978C270.069 151.136 270.042 151.293 269.983 151.44C269.924 151.587 269.835 151.72 269.722 151.831C267.447 154.106 265.104 156.449 262.772 158.747C262.574 158.933 262.316 159.042 262.044 159.054C259.769 159.054 257.517 159.054 255.288 159.054C255.028 159.043 254.782 158.938 254.594 158.758C252.319 156.483 250.044 154.208 247.769 151.933L247.348 151.535L246.927 151.922C244.652 154.197 242.377 156.472 240.103 158.747C239.993 158.858 239.862 158.946 239.717 159.005C239.572 159.064 239.417 159.092 239.261 159.088C236.986 159.088 234.813 159.088 232.595 159.088C232.325 159.079 232.067 158.974 231.867 158.792C229.524 156.517 227.2 154.193 224.894 151.819C224.71 151.616 224.602 151.354 224.587 151.08C224.587 138.772 224.587 137.373 224.587 125.066V124.531H232.163V151.467H243.538V124.52H251.125V151.455H262.499L262.465 124.497Z" fill="white" />
<path d="M305.61 142.856C305.71 143.007 305.821 143.151 305.94 143.288C308.214 145.563 310.489 147.838 312.764 150.113C312.939 150.282 313.048 150.508 313.071 150.75C313.071 155.607 313.071 153.912 313.071 158.712C313.076 158.792 313.076 158.872 313.071 158.951H305.53V150.466H282.781V159.008H275.205C275.205 158.838 275.205 158.678 275.205 158.508C275.205 153.787 275.205 155.618 275.205 150.887C275.198 150.738 275.224 150.589 275.281 150.452C275.338 150.314 275.425 150.191 275.535 150.09C277.81 147.815 280.085 145.54 282.36 143.266L282.792 142.799H275.273C275.273 142.594 275.273 142.435 275.273 142.265C275.273 137.544 275.273 137.191 275.273 132.46C275.285 132.172 275.397 131.898 275.592 131.686C277.867 129.354 280.21 127.056 282.508 124.736C282.606 124.623 282.729 124.534 282.867 124.475C283.005 124.416 283.154 124.388 283.304 124.395H305.143C305.291 124.389 305.439 124.417 305.575 124.476C305.71 124.535 305.831 124.624 305.928 124.736L312.855 131.675C313.03 131.844 313.139 132.07 313.163 132.312C313.163 137.157 313.163 137.635 313.163 142.469C313.163 142.56 313.163 142.64 313.163 142.788H305.655C305.655 142.583 305.655 142.39 305.655 142.185V132.027H282.906V142.788H305.052L305.61 142.856Z" fill="white" />
<path d="M411.793 159.02H404.274V124.486H411.793V159.02Z" fill="white" />
</g>
<defs>
<clipPath id="clip0_15_21">
<rect width="412.198" height="205.011" fill="black"  transform="translate(0.830566 0.674042)"/>
</clipPath>
</defs>
</svg>
